<?xml version="1.0" encoding="utf-8" ?>
<!-- Generator: Adobe Illustrator 26.2.1, SVG Export Plug-In . SVG Version: 6.00 Build 0)  -->
<svg
  version="1.1"
  id="Layer_1"
  xmlns="http://www.w3.org/2000/svg"
  xmlns:xlink="http://www.w3.org/1999/xlink"
  x="0px"
  y="0px"
  viewBox="0 0 30 30"
  enable-background="new 0 0 30 30"
  xml:space="preserve"
>
<style>
    g {
    --bg: #1e3764;
    --fg: #afc8ff;
    --op: 1;
    }
  @media (prefers-color-scheme: dark) {
    g {
    --bg: #1e3764;
    --fg: #afc8ff;
    --op: 1;
    }
  }
</style>

<g>
<rect opacity="var(--op)" fill="var(--bg, #000)" width="30" height="30" />
<rect
      class="bg"
      opacity="var(--op)"
      fill="var(--bg, #000)"
      width="30"
      height="30"
    />
<polygon
      fill="var(--fg, #000)"
      points="4.8,4.6 11.4,4.6 15,7.4 15,12.6 11.1,13.5 11.1,9.7 3.4,7 "
    />
<polygon
      opacity=".8"
      fill="var(--fg, #000)"
      points="25.2,4.6 18.9,4.6 15,7.4 15,12.6 18.9,13.5 18.9,9.7 26.6,7 "
    />
<polygon
      opacity=".8"
      fill="var(--fg, #000)"
      points="15.7,15.9 19.9,14.5 19.9,11.2 22.5,11.4 25.4,8.8 28.1,11 23,19.8 18.2,19.8 
	15.8,17.3 "
    />
<polygon
      opacity="var(--op)"
      fill="var(--fg, #000)"
      points="30,30 30,21.6 24.1,30 "
    />
<polygon
      opacity="var(--op)"
      fill="var(--fg, #000)"
      points="0,21.6 0,30 5.9,30 "
    />
<polygon
      fill="var(--fg, #000)"
      points="14.3,15.9 10.1,14.5 10.1,11.2 7.5,11.4 4.6,8.8 1.9,11 7,19.8 11.8,19.8 14.2,17.3 "
    />
<polygon
      opacity=".8"
      fill="var(--fg, #000)"
      points="15,18.9 18,21.6 20.8,21.6 17.4,27.7 15,27.7 "
    />
<polygon
      opacity="1"
      fill="var(--fg, #000)"
      points="15,18.9 12,21.6 9.2,21.6 12.6,27.7 15,27.7 "
    />
<polygon
      opacity="var(--op, 1)"
      fill="var(--fg, #000)"
      points="15,2.7 17.1,0 12.9,0 "
    />
</g>
</svg>
